<svg width="81" height="80" viewBox="0 0 81 80" fill="none" xmlns="http://www.w3.org/2000/svg">
<g clip-path="url(#clip0_396_7501)">
<path d="M0.25 32C0.25 14.3269 14.5769 0 32.25 0H48.25C65.9231 0 80.25 14.3269 80.25 32V48C80.25 65.6731 65.9231 80 48.25 80H32.25C14.5769 80 0.25 65.6731 0.25 48V32Z" fill="#EAF2FF"/>
<path d="M10.25 65.7624C10.25 56.9258 17.4134 49.7624 26.25 49.7624H54.25C63.0866 49.7624 70.25 56.9258 70.25 65.7624V93.7624C70.25 102.599 63.0866 109.762 54.25 109.762H26.25C17.4134 109.762 10.25 102.599 10.25 93.7624V65.7624Z" fill="#B4DBFF"/>
<circle cx="40.25" cy="28" r="16" fill="#B4DBFF"/>
</g>
<defs>
<clipPath id="clip0_396_7501">
<path d="M0.25 32C0.25 14.3269 14.5769 0 32.25 0H48.25C65.9231 0 80.25 14.3269 80.25 32V48C80.25 65.6731 65.9231 80 48.25 80H32.25C14.5769 80 0.25 65.6731 0.25 48V32Z" fill="white"/>
</clipPath>
</defs>
</svg>
